<?xml version="1.0" encoding="utf-8" standalone="no"?>
<!DOCTYPE svg PUBLIC "-//W3C//DTD SVG 1.1//EN"
  "http://www.w3.org/Graphics/SVG/1.1/DTD/svg11.dtd">
<svg xmlns:xlink="http://www.w3.org/1999/xlink" width="864pt" height="432pt" viewBox="0 0 864 432" xmlns="http://www.w3.org/2000/svg" version="1.1">
 <metadata>
  <rdf:RDF xmlns:dc="http://purl.org/dc/elements/1.1/" xmlns:cc="http://creativecommons.org/ns#" xmlns:rdf="http://www.w3.org/1999/02/22-rdf-syntax-ns#">
   <cc:Work>
    <dc:type rdf:resource="http://purl.org/dc/dcmitype/StillImage"/>
    <dc:date>2025-05-20T19:50:12.748851</dc:date>
    <dc:format>image/svg+xml</dc:format>
    <dc:creator>
     <cc:Agent>
      <dc:title>Matplotlib v3.6.0, https://matplotlib.org/</dc:title>
     </cc:Agent>
    </dc:creator>
   </cc:Work>
  </rdf:RDF>
 </metadata>
 <defs>
  <style type="text/css">*{stroke-linejoin: round; stroke-linecap: butt}</style>
 </defs>
 <g id="figure_1">
  <g id="patch_1">
   <path d="M 0 432 
L 864 432 
L 864 0 
L 0 0 
z
" style="fill: #ffffff"/>
  </g>
  <g id="axes_1">
   <g id="patch_2">
    <path d="M 36.11 381.6025 
L 853.2 381.6025 
L 853.2 26.86875 
L 36.11 26.86875 
z
" style="fill: #ffffff"/>
   </g>
   <g id="PolyCollection_1">
    <defs>
     <path id="mc3680eda22" d="M 117.926802 -95.973535 
L 117.711198 -95.973535 
L 117.579975 -98.635976 
L 117.385549 -101.298417 
L 117.176143 -103.960858 
L 117.039232 -106.6233 
L 117.04544 -109.285741 
L 117.191376 -111.948182 
L 117.402531 -114.610623 
L 117.592982 -117.273064 
L 117.718681 -119.935506 
L 117.782584 -122.597947 
L 117.808188 -125.260388 
L 117.816375 -127.922829 
L 117.818479 -130.585271 
L 117.818915 -133.247712 
L 117.818988 -135.910153 
L 117.818995 -138.572594 
L 117.818966 -141.235035 
L 117.818774 -143.897477 
L 117.817758 -146.559918 
L 117.813413 -149.222359 
L 117.798441 -151.8848 
L 117.75712 -154.547242 
L 117.666677 -157.209683 
L 117.512339 -159.872124 
L 117.314072 -162.534565 
L 117.139049 -165.197006 
L 117.070135 -167.859448 
L 117.144462 -170.521889 
L 117.32208 -173.18433 
L 117.519605 -175.846771 
L 117.67147 -178.509212 
L 117.759545 -181.171654 
L 117.799403 -183.834095 
L 117.813717 -186.496536 
L 117.817835 -189.158977 
L 117.81879 -191.821419 
L 117.818969 -194.48386 
L 117.818992 -197.146301 
L 117.818959 -199.808742 
L 117.818698 -202.471183 
L 117.817154 -205.133625 
L 117.809779 -207.796066 
L 117.781325 -210.458507 
L 117.693112 -213.120948 
L 117.474969 -215.78339 
L 117.050068 -218.445831 
L 116.41342 -221.108272 
L 115.717637 -223.770713 
L 115.249648 -226.433154 
L 115.249648 -229.095596 
L 115.717637 -231.758037 
L 116.41342 -234.420478 
L 117.050068 -237.082919 
L 117.474969 -239.74536 
L 117.693112 -242.407802 
L 117.781325 -245.070243 
L 117.809779 -247.732684 
L 117.817154 -250.395125 
L 117.818697 -253.057567 
L 117.81895 -255.720008 
L 117.818902 -258.382449 
L 117.818224 -261.04489 
L 117.813742 -263.707331 
L 117.789842 -266.369773 
L 117.686743 -269.032214 
L 117.328372 -271.694655 
L 116.330452 -274.357096 
L 114.125395 -277.019538 
L 110.323243 -279.681979 
L 105.377926 -282.34442 
L 100.931024 -285.006861 
L 99.070148 -287.669302 
L 100.79549 -290.331744 
L 105.177433 -292.994185 
L 110.141319 -295.656626 
L 114.005388 -298.319067 
L 116.269754 -300.981508 
L 117.304267 -303.64395 
L 117.679131 -306.306391 
L 117.787916 -308.968832 
L 117.81335 -311.631273 
L 117.818151 -314.293715 
L 117.818795 -316.956156 
L 117.818047 -319.618597 
L 117.811901 -322.281038 
L 117.775298 -324.943479 
L 117.598934 -327.605921 
L 116.912676 -330.268362 
L 114.766251 -332.930803 
L 109.40939 -335.593244 
L 98.87211 -338.255686 
L 82.906786 -340.918127 
L 65.205863 -343.580568 
L 52.972228 -346.243009 
L 52.4518 -348.90545 
L 63.928929 -351.567892 
L 81.483179 -354.230333 
L 97.78173 -356.892774 
L 108.7821 -359.555215 
L 126.8559 -359.555215 
L 126.8559 -359.555215 
L 137.85627 -356.892774 
L 154.154821 -354.230333 
L 171.709071 -351.567892 
L 183.1862 -348.90545 
L 182.665772 -346.243009 
L 170.432137 -343.580568 
L 152.731214 -340.918127 
L 136.76589 -338.255686 
L 126.22861 -335.593244 
L 120.871749 -332.930803 
L 118.725324 -330.268362 
L 118.039066 -327.605921 
L 117.862702 -324.943479 
L 117.826099 -322.281038 
L 117.819953 -319.618597 
L 117.819205 -316.956156 
L 117.819849 -314.293715 
L 117.82465 -311.631273 
L 117.850084 -308.968832 
L 117.958869 -306.306391 
L 118.333733 -303.64395 
L 119.368246 -300.981508 
L 121.632612 -298.319067 
L 125.496681 -295.656626 
L 130.460567 -292.994185 
L 134.84251 -290.331744 
L 136.567852 -287.669302 
L 134.706976 -285.006861 
L 130.260074 -282.34442 
L 125.314757 -279.681979 
L 121.512605 -277.019538 
L 119.307548 -274.357096 
L 118.309628 -271.694655 
L 117.951257 -269.032214 
L 117.848158 -266.369773 
L 117.824258 -263.707331 
L 117.819776 -261.04489 
L 117.819098 -258.382449 
L 117.81905 -255.720008 
L 117.819303 -253.057567 
L 117.820846 -250.395125 
L 117.828221 -247.732684 
L 117.856675 -245.070243 
L 117.944888 -242.407802 
L 118.163031 -239.74536 
L 118.587932 -237.082919 
L 119.22458 -234.420478 
L 119.920363 -231.758037 
L 120.388352 -229.095596 
L 120.388352 -226.433154 
L 119.920363 -223.770713 
L 119.22458 -221.108272 
L 118.587932 -218.445831 
L 118.163031 -215.78339 
L 117.944888 -213.120948 
L 117.856675 -210.458507 
L 117.828221 -207.796066 
L 117.820846 -205.133625 
L 117.819302 -202.471183 
L 117.819041 -199.808742 
L 117.819008 -197.146301 
L 117.819031 -194.48386 
L 117.81921 -191.821419 
L 117.820165 -189.158977 
L 117.824283 -186.496536 
L 117.838597 -183.834095 
L 117.878455 -181.171654 
L 117.96653 -178.509212 
L 118.118395 -175.846771 
L 118.31592 -173.18433 
L 118.493538 -170.521889 
L 118.567865 -167.859448 
L 118.498951 -165.197006 
L 118.323928 -162.534565 
L 118.125661 -159.872124 
L 117.971323 -157.209683 
L 117.88088 -154.547242 
L 117.839559 -151.8848 
L 117.824587 -149.222359 
L 117.820242 -146.559918 
L 117.819226 -143.897477 
L 117.819034 -141.235035 
L 117.819005 -138.572594 
L 117.819012 -135.910153 
L 117.819085 -133.247712 
L 117.819521 -130.585271 
L 117.821625 -127.922829 
L 117.829812 -125.260388 
L 117.855416 -122.597947 
L 117.919319 -119.935506 
L 118.045018 -117.273064 
L 118.235469 -114.610623 
L 118.446624 -111.948182 
L 118.59256 -109.285741 
L 118.598768 -106.6233 
L 118.461857 -103.960858 
L 118.252451 -101.298417 
L 118.058025 -98.635976 
L 117.926802 -95.973535 
z
" style="stroke: #3d3d3d; stroke-width: 1.25"/>
    </defs>
    <g clip-path="url(#p1d7503997d)">
     <use xlink:href="#mc3680eda22" x="0" y="432" style="fill: #aeccdb; stroke: #3d3d3d; stroke-width: 1.25"/>
    </g>
   </g>
   <g id="PolyCollection_2">
    <defs>
     <path id="m7380cc2280" d="M 281.460827 -93.621874 
L 281.013173 -93.621874 
L 280.791037 -96.331823 
L 280.468483 -99.041773 
L 280.091546 -101.751722 
L 279.760371 -104.461672 
L 279.590604 -107.171621 
L 279.649307 -109.881571 
L 279.912756 -112.59152 
L 280.281702 -115.30147 
L 280.640955 -118.011419 
L 280.915346 -120.721369 
L 281.08687 -123.431318 
L 281.176394 -126.141268 
L 281.215839 -128.851217 
L 281.230606 -131.561167 
L 281.235306 -134.271116 
L 281.236481 -136.981066 
L 281.236238 -139.691015 
L 281.234101 -142.400965 
L 281.226532 -145.110915 
L 281.20418 -147.820864 
L 281.147984 -150.530814 
L 281.028182 -153.240763 
L 280.813319 -155.950713 
L 280.493506 -158.660662 
L 280.108541 -161.370612 
L 279.755631 -164.080561 
L 279.555062 -166.790511 
L 279.585319 -169.50046 
L 279.834149 -172.21041 
L 280.206457 -174.920359 
L 280.582228 -177.630309 
L 280.877181 -180.340258 
L 281.06598 -183.050208 
L 281.166696 -185.760157 
L 281.212002 -188.470107 
L 281.229302 -191.180056 
L 281.234879 -193.890006 
L 281.236092 -196.599955 
L 281.234746 -199.309905 
L 281.227764 -202.019855 
L 281.202955 -204.729804 
L 281.12829 -207.439754 
L 280.93675 -210.149703 
L 280.519756 -212.859653 
L 279.755094 -215.569602 
L 278.588845 -218.279552 
L 277.144058 -220.989501 
L 275.765619 -223.699451 
L 274.911022 -226.4094 
L 274.911022 -229.11935 
L 275.765619 -231.829299 
L 277.144058 -234.539249 
L 278.588845 -237.249198 
L 279.755094 -239.959148 
L 280.519756 -242.669097 
L 280.936749 -245.379047 
L 281.128285 -248.088996 
L 281.202912 -250.798946 
L 281.227471 -253.508895 
L 281.233047 -256.218845 
L 281.227551 -258.928795 
L 281.19775 -261.638744 
L 281.089708 -264.348694 
L 280.758066 -267.058643 
L 279.889982 -269.768593 
L 277.960263 -272.478542 
L 274.342877 -275.188492 
L 268.691564 -277.898441 
L 261.491789 -280.608391 
L 254.358373 -283.31834 
L 249.590793 -286.02829 
L 249.011063 -288.738239 
L 252.853972 -291.448189 
L 259.61573 -294.158138 
L 266.991656 -296.868088 
L 273.119281 -299.578037 
L 277.236039 -302.287987 
L 279.531451 -304.997936 
L 280.608161 -307.707886 
L 281.036402 -310.417835 
L 281.181199 -313.127785 
L 281.220882 -315.837735 
L 281.219308 -318.547684 
L 281.170247 -321.257634 
L 280.983211 -323.967583 
L 280.396838 -326.677533 
L 278.83075 -329.387482 
L 275.276363 -332.097432 
L 268.466322 -334.807381 
L 257.572106 -337.517331 
L 243.308606 -340.22728 
L 228.660262 -342.93723 
L 218.200497 -345.647179 
L 215.8698 -348.357129 
L 222.610098 -351.067078 
L 235.758797 -353.777028 
L 250.724419 -356.486977 
L 263.530861 -359.196927 
L 272.350349 -361.906876 
L 290.123651 -361.906876 
L 290.123651 -361.906876 
L 298.943139 -359.196927 
L 311.749581 -356.486977 
L 326.715203 -353.777028 
L 339.863902 -351.067078 
L 346.6042 -348.357129 
L 344.273503 -345.647179 
L 333.813738 -342.93723 
L 319.165394 -340.22728 
L 304.901894 -337.517331 
L 294.007678 -334.807381 
L 287.197637 -332.097432 
L 283.64325 -329.387482 
L 282.077162 -326.677533 
L 281.490789 -323.967583 
L 281.303753 -321.257634 
L 281.254692 -318.547684 
L 281.253118 -315.837735 
L 281.292801 -313.127785 
L 281.437598 -310.417835 
L 281.865839 -307.707886 
L 282.942549 -304.997936 
L 285.237961 -302.287987 
L 289.354719 -299.578037 
L 295.482344 -296.868088 
L 302.85827 -294.158138 
L 309.620028 -291.448189 
L 313.462937 -288.738239 
L 312.883207 -286.02829 
L 308.115627 -283.31834 
L 300.982211 -280.608391 
L 293.782436 -277.898441 
L 288.131123 -275.188492 
L 284.513737 -272.478542 
L 282.584018 -269.768593 
L 281.715934 -267.058643 
L 281.384292 -264.348694 
L 281.27625 -261.638744 
L 281.246449 -258.928795 
L 281.240953 -256.218845 
L 281.246529 -253.508895 
L 281.271088 -250.798946 
L 281.345715 -248.088996 
L 281.537251 -245.379047 
L 281.954244 -242.669097 
L 282.718906 -239.959148 
L 283.885155 -237.249198 
L 285.329942 -234.539249 
L 286.708381 -231.829299 
L 287.562978 -229.11935 
L 287.562978 -226.4094 
L 286.708381 -223.699451 
L 285.329942 -220.989501 
L 283.885155 -218.279552 
L 282.718906 -215.569602 
L 281.954244 -212.859653 
L 281.53725 -210.149703 
L 281.34571 -207.439754 
L 281.271045 -204.729804 
L 281.246236 -202.019855 
L 281.239254 -199.309905 
L 281.237908 -196.599955 
L 281.239121 -193.890006 
L 281.244698 -191.180056 
L 281.261998 -188.470107 
L 281.307304 -185.760157 
L 281.40802 -183.050208 
L 281.596819 -180.340258 
L 281.891772 -177.630309 
L 282.267543 -174.920359 
L 282.639851 -172.21041 
L 282.888681 -169.50046 
L 282.918938 -166.790511 
L 282.718369 -164.080561 
L 282.365459 -161.370612 
L 281.980494 -158.660662 
L 281.660681 -155.950713 
L 281.445818 -153.240763 
L 281.326016 -150.530814 
L 281.26982 -147.820864 
L 281.247468 -145.110915 
L 281.239899 -142.400965 
L 281.237762 -139.691015 
L 281.237519 -136.981066 
L 281.238694 -134.271116 
L 281.243394 -131.561167 
L 281.258161 -128.851217 
L 281.297606 -126.141268 
L 281.38713 -123.431318 
L 281.558654 -120.721369 
L 281.833045 -118.011419 
L 282.192298 -115.30147 
L 282.561244 -112.59152 
L 282.824693 -109.881571 
L 282.883396 -107.171621 
L 282.713629 -104.461672 
L 282.382454 -101.751722 
L 282.005517 -99.041773 
L 281.682963 -96.331823 
L 281.460827 -93.621874 
z
" style="stroke: #3d3d3d; stroke-width: 1.25"/>
    </defs>
    <g clip-path="url(#p1d7503997d)">
     <use xlink:href="#m7380cc2280" x="0" y="432" style="fill: #3274a1; stroke: #3d3d3d; stroke-width: 1.25"/>
    </g>
   </g>
   <g id="PolyCollection_3">
    <defs>
     <path id="mf94de3f1ea" d="M 445.53595 -66.521761 
L 443.77405 -66.521761 
L 443.462424 -69.779188 
L 443.080177 -73.036614 
L 442.626433 -76.294041 
L 442.106045 -79.551468 
L 441.530687 -82.808894 
L 440.919286 -86.066321 
L 440.297571 -89.323747 
L 439.69659 -92.581174 
L 439.150247 -95.8386 
L 438.692062 -99.096027 
L 438.351539 -102.353453 
L 438.150666 -105.61088 
L 438.10106 -108.868306 
L 438.202246 -112.125733 
L 438.441359 -115.383159 
L 438.794352 -118.640586 
L 439.228556 -121.898013 
L 439.706216 -125.155439 
L 440.188525 -128.412866 
L 440.639598 -131.670292 
L 441.029917 -134.927719 
L 441.338849 -138.185145 
L 441.556034 -141.442572 
L 441.681566 -144.699998 
L 441.725043 -147.957425 
L 441.703674 -151.214851 
L 441.639698 -154.472278 
L 441.557426 -157.729704 
L 441.480226 -160.987131 
L 441.427758 -164.244558 
L 441.413763 -167.501984 
L 441.444597 -170.759411 
L 441.518685 -174.016837 
L 441.626907 -177.274264 
L 441.75387 -180.53169 
L 441.879909 -183.789117 
L 441.98357 -187.046543 
L 442.044318 -190.30397 
L 442.045158 -193.561396 
L 441.974893 -196.818823 
L 441.829775 -200.076249 
L 441.614338 -203.333676 
L 441.341297 -206.591103 
L 441.030459 -209.848529 
L 440.70671 -213.105956 
L 440.397238 -216.363382 
L 440.128272 -219.620809 
L 439.921704 -222.878235 
L 439.792001 -226.135662 
L 439.74383 -229.393088 
L 439.77073 -232.650515 
L 439.855083 -235.907941 
L 439.969446 -239.165368 
L 440.079155 -242.422794 
L 440.145978 -245.680221 
L 440.132428 -248.937647 
L 440.00628 -252.195074 
L 439.744802 -255.452501 
L 439.338164 -258.709927 
L 438.791541 -261.967354 
L 438.125512 -265.22478 
L 437.374444 -268.482207 
L 436.582775 -271.739633 
L 435.799319 -274.99706 
L 435.069996 -278.254486 
L 434.429665 -281.511913 
L 433.893956 -284.769339 
L 433.452159 -288.026766 
L 433.062263 -291.284192 
L 432.649141 -294.541619 
L 432.106701 -297.799046 
L 431.304448 -301.056472 
L 430.09856 -304.313899 
L 428.34699 -307.571325 
L 425.927612 -310.828752 
L 422.757741 -314.086178 
L 418.812852 -317.343605 
L 414.141823 -320.601031 
L 408.875973 -323.858458 
L 403.229404 -327.115884 
L 397.489042 -330.373311 
L 391.994101 -333.630737 
L 387.106367 -336.888164 
L 383.174477 -340.145591 
L 380.496741 -343.403017 
L 379.2878 -346.660444 
L 379.654158 -349.91787 
L 381.58244 -353.175297 
L 384.942186 -356.432723 
L 389.502627 -359.69015 
L 394.960579 -362.947576 
L 400.974925 -366.205003 
L 407.202374 -369.462429 
L 413.329462 -372.719856 
L 419.096905 -375.977282 
L 424.314117 -379.234709 
L 428.863586 -382.492136 
L 432.696377 -385.749562 
L 435.821156 -389.006989 
L 453.488844 -389.006989 
L 453.488844 -389.006989 
L 456.613623 -385.749562 
L 460.446414 -382.492136 
L 464.995883 -379.234709 
L 470.213095 -375.977282 
L 475.980538 -372.719856 
L 482.107626 -369.462429 
L 488.335075 -366.205003 
L 494.349421 -362.947576 
L 499.807373 -359.69015 
L 504.367814 -356.432723 
L 507.72756 -353.175297 
L 509.655842 -349.91787 
L 510.0222 -346.660444 
L 508.813259 -343.403017 
L 506.135523 -340.145591 
L 502.203633 -336.888164 
L 497.315899 -333.630737 
L 491.820958 -330.373311 
L 486.080596 -327.115884 
L 480.434027 -323.858458 
L 475.168177 -320.601031 
L 470.497148 -317.343605 
L 466.552259 -314.086178 
L 463.382388 -310.828752 
L 460.96301 -307.571325 
L 459.21144 -304.313899 
L 458.005552 -301.056472 
L 457.203299 -297.799046 
L 456.660859 -294.541619 
L 456.247737 -291.284192 
L 455.857841 -288.026766 
L 455.416044 -284.769339 
L 454.880335 -281.511913 
L 454.240004 -278.254486 
L 453.510681 -274.99706 
L 452.727225 -271.739633 
L 451.935556 -268.482207 
L 451.184488 -265.22478 
L 450.518459 -261.967354 
L 449.971836 -258.709927 
L 449.565198 -255.452501 
L 449.30372 -252.195074 
L 449.177572 -248.937647 
L 449.164022 -245.680221 
L 449.230845 -242.422794 
L 449.340554 -239.165368 
L 449.454917 -235.907941 
L 449.53927 -232.650515 
L 449.56617 -229.393088 
L 449.517999 -226.135662 
L 449.388296 -222.878235 
L 449.181728 -219.620809 
L 448.912762 -216.363382 
L 448.60329 -213.105956 
L 448.279541 -209.848529 
L 447.968703 -206.591103 
L 447.695662 -203.333676 
L 447.480225 -200.076249 
L 447.335107 -196.818823 
L 447.264842 -193.561396 
L 447.265682 -190.30397 
L 447.32643 -187.046543 
L 447.430091 -183.789117 
L 447.55613 -180.53169 
L 447.683093 -177.274264 
L 447.791315 -174.016837 
L 447.865403 -170.759411 
L 447.896237 -167.501984 
L 447.882242 -164.244558 
L 447.829774 -160.987131 
L 447.752574 -157.729704 
L 447.670302 -154.472278 
L 447.606326 -151.214851 
L 447.584957 -147.957425 
L 447.628434 -144.699998 
L 447.753966 -141.442572 
L 447.971151 -138.185145 
L 448.280083 -134.927719 
L 448.670402 -131.670292 
L 449.121475 -128.412866 
L 449.603784 -125.155439 
L 450.081444 -121.898013 
L 450.515648 -118.640586 
L 450.868641 -115.383159 
L 451.107754 -112.125733 
L 451.20894 -108.868306 
L 451.159334 -105.61088 
L 450.958461 -102.353453 
L 450.617938 -99.096027 
L 450.159753 -95.8386 
L 449.61341 -92.581174 
L 449.012429 -89.323747 
L 448.390714 -86.066321 
L 447.779313 -82.808894 
L 447.203955 -79.551468 
L 446.683567 -76.294041 
L 446.229823 -73.036614 
L 445.847576 -69.779188 
L 445.53595 -66.521761 
z
" style="stroke: #3d3d3d; stroke-width: 1.25"/>
    </defs>
    <g clip-path="url(#p1d7503997d)">
     <use xlink:href="#mf94de3f1ea" x="0" y="432" style="fill: #b3d495; stroke: #3d3d3d; stroke-width: 1.25"/>
    </g>
   </g>
   <g id="PolyCollection_4">
    <defs>
     <path id="m4ac37062cd" d="M 610.28001 -248.853791 
L 605.86599 -248.853791 
L 605.532832 -250.244647 
L 605.164306 -251.635502 
L 604.759312 -253.026358 
L 604.317189 -254.417214 
L 603.837788 -255.80807 
L 603.321544 -257.198925 
L 602.769536 -258.589781 
L 602.183543 -259.980637 
L 601.566081 -261.371493 
L 600.920429 -262.762348 
L 600.250628 -264.153204 
L 599.561471 -265.54406 
L 598.858456 -266.934916 
L 598.147727 -268.325771 
L 597.435976 -269.716627 
L 596.730336 -271.107483 
L 596.03824 -272.498339 
L 595.367257 -273.889194 
L 594.724922 -275.28005 
L 594.118535 -276.670906 
L 593.554964 -278.061762 
L 593.040435 -279.452617 
L 592.580324 -280.843473 
L 592.178956 -282.234329 
L 591.839419 -283.625185 
L 591.563388 -285.01604 
L 591.350983 -286.406896 
L 591.200644 -287.797752 
L 591.10905 -289.188608 
L 591.071066 -290.579463 
L 591.079731 -291.970319 
L 591.126289 -293.361175 
L 591.200258 -294.752031 
L 591.289551 -296.142886 
L 591.380622 -297.533742 
L 591.458669 -298.924598 
L 591.507863 -300.315453 
L 591.511621 -301.706309 
L 591.452904 -303.097165 
L 591.314546 -304.488021 
L 591.079607 -305.878876 
L 590.731742 -307.269732 
L 590.255582 -308.660588 
L 589.637122 -310.051444 
L 588.86411 -311.442299 
L 587.92642 -312.833155 
L 586.816413 -314.224011 
L 585.529272 -315.614867 
L 584.063299 -317.005722 
L 582.420163 -318.396578 
L 580.605104 -319.787434 
L 578.627063 -321.17829 
L 576.498741 -322.569145 
L 574.236582 -323.960001 
L 571.860666 -325.350857 
L 569.394515 -326.741713 
L 566.8648 -328.132568 
L 564.300967 -329.523424 
L 561.734771 -330.91428 
L 559.199727 -332.305136 
L 556.730497 -333.695991 
L 554.362218 -335.086847 
L 552.129791 -336.477703 
L 550.067148 -337.868559 
L 548.206517 -339.259414 
L 546.577704 -340.65027 
L 545.207425 -342.041126 
L 544.118688 -343.431981 
L 543.330265 -344.822837 
L 542.856262 -346.213693 
L 542.7058 -347.604549 
L 542.882818 -348.995404 
L 543.386009 -350.38626 
L 544.20889 -351.777116 
L 545.339995 -353.167972 
L 546.763194 -354.558827 
L 548.458123 -355.949683 
L 550.40071 -357.340539 
L 552.563776 -358.731395 
L 554.917698 -360.12225 
L 557.431107 -361.513106 
L 560.071597 -362.903962 
L 562.806431 -364.294818 
L 565.603213 -365.685673 
L 568.430522 -367.076529 
L 571.258476 -368.467385 
L 574.059223 -369.858241 
L 576.807349 -371.249096 
L 579.480196 -372.639952 
L 582.05808 -374.030808 
L 584.524431 -375.421664 
L 586.865831 -376.812519 
L 589.07198 -378.203375 
L 591.135587 -379.594231 
L 593.052198 -380.985087 
L 594.819975 -382.375942 
L 596.43944 -383.766798 
L 597.91318 -385.157654 
L 599.245553 -386.548509 
L 616.900447 -386.548509 
L 616.900447 -386.548509 
L 618.23282 -385.157654 
L 619.70656 -383.766798 
L 621.326025 -382.375942 
L 623.093802 -380.985087 
L 625.010413 -379.594231 
L 627.07402 -378.203375 
L 629.280169 -376.812519 
L 631.621569 -375.421664 
L 634.08792 -374.030808 
L 636.665804 -372.639952 
L 639.338651 -371.249096 
L 642.086777 -369.858241 
L 644.887524 -368.467385 
L 647.715478 -367.076529 
L 650.542787 -365.685673 
L 653.339569 -364.294818 
L 656.074403 -362.903962 
L 658.714893 -361.513106 
L 661.228302 -360.12225 
L 663.582224 -358.731395 
L 665.74529 -357.340539 
L 667.687877 -355.949683 
L 669.382806 -354.558827 
L 670.806005 -353.167972 
L 671.93711 -351.777116 
L 672.759991 -350.38626 
L 673.263182 -348.995404 
L 673.4402 -347.604549 
L 673.289738 -346.213693 
L 672.815735 -344.822837 
L 672.027312 -343.431981 
L 670.938575 -342.041126 
L 669.568296 -340.65027 
L 667.939483 -339.259414 
L 666.078852 -337.868559 
L 664.016209 -336.477703 
L 661.783782 -335.086847 
L 659.415503 -333.695991 
L 656.946273 -332.305136 
L 654.411229 -330.91428 
L 651.845033 -329.523424 
L 649.2812 -328.132568 
L 646.751485 -326.741713 
L 644.285334 -325.350857 
L 641.909418 -323.960001 
L 639.647259 -322.569145 
L 637.518937 -321.17829 
L 635.540896 -319.787434 
L 633.725837 -318.396578 
L 632.082701 -317.005722 
L 630.616728 -315.614867 
L 629.329587 -314.224011 
L 628.21958 -312.833155 
L 627.28189 -311.442299 
L 626.508878 -310.051444 
L 625.890418 -308.660588 
L 625.414258 -307.269732 
L 625.066393 -305.878876 
L 624.831454 -304.488021 
L 624.693096 -303.097165 
L 624.634379 -301.706309 
L 624.638137 -300.315453 
L 624.687331 -298.924598 
L 624.765378 -297.533742 
L 624.856449 -296.142886 
L 624.945742 -294.752031 
L 625.019711 -293.361175 
L 625.066269 -291.970319 
L 625.074934 -290.579463 
L 625.03695 -289.188608 
L 624.945356 -287.797752 
L 624.795017 -286.406896 
L 624.582612 -285.01604 
L 624.306581 -283.625185 
L 623.967044 -282.234329 
L 623.565676 -280.843473 
L 623.105565 -279.452617 
L 622.591036 -278.061762 
L 622.027465 -276.670906 
L 621.421078 -275.28005 
L 620.778743 -273.889194 
L 620.10776 -272.498339 
L 619.415664 -271.107483 
L 618.710024 -269.716627 
L 617.998273 -268.325771 
L 617.287544 -266.934916 
L 616.584529 -265.54406 
L 615.895372 -264.153204 
L 615.225571 -262.762348 
L 614.579919 -261.371493 
L 613.962457 -259.980637 
L 613.376464 -258.589781 
L 612.824456 -257.198925 
L 612.308212 -255.80807 
L 611.828811 -254.417214 
L 611.386688 -253.026358 
L 610.981694 -251.635502 
L 610.613168 -250.244647 
L 610.28001 -248.853791 
z
" style="stroke: #3d3d3d; stroke-width: 1.25"/>
    </defs>
    <g clip-path="url(#p1d7503997d)">
     <use xlink:href="#m4ac37062cd" x="0" y="432" style="fill: #40923a; stroke: #3d3d3d; stroke-width: 1.25"/>
    </g>
   </g>
   <g id="PolyCollection_5">
    <defs>
     <path id="m90f866623d" d="M 771.559844 -94.705503 
L 771.422156 -94.705503 
L 771.347509 -97.393561 
L 771.238001 -100.081619 
L 771.113648 -102.769677 
L 771.014885 -105.457735 
L 770.982826 -108.145793 
L 771.032174 -110.833851 
L 771.140555 -113.521909 
L 771.264573 -116.209967 
L 771.367243 -118.898025 
L 771.43378 -121.586083 
L 771.46862 -124.274141 
L 771.483595 -126.962199 
L 771.488927 -129.650257 
L 771.490509 -132.338315 
L 771.490899 -135.026373 
L 771.490965 -137.714431 
L 771.490886 -140.402489 
L 771.490432 -143.090547 
L 771.488569 -145.778605 
L 771.482191 -148.466663 
L 771.463997 -151.154721 
L 771.420982 -153.842779 
L 771.337415 -156.530837 
L 771.206013 -159.218896 
L 771.043662 -161.906954 
L 770.897005 -164.595012 
L 770.823787 -167.28307 
L 770.857009 -169.971128 
L 770.981392 -172.659186 
L 771.144482 -175.347244 
L 771.29168 -178.035302 
L 771.394013 -180.72336 
L 771.451078 -183.411418 
L 771.477099 -186.099476 
L 771.486905 -188.787534 
L 771.489979 -191.475592 
L 771.490778 -194.16365 
L 771.490913 -196.851708 
L 771.490686 -199.539766 
L 771.489358 -202.227824 
L 771.483603 -204.915882 
L 771.462794 -207.60394 
L 771.40001 -210.291998 
L 771.242698 -212.980056 
L 770.917805 -215.668114 
L 770.371666 -218.356172 
L 769.641934 -221.04423 
L 768.907068 -223.732288 
L 768.436463 -226.420346 
L 768.436463 -229.108404 
L 768.907068 -231.796462 
L 769.641934 -234.48452 
L 770.371666 -237.172578 
L 770.917805 -239.860636 
L 771.242698 -242.548694 
L 771.40001 -245.236752 
L 771.462794 -247.92481 
L 771.483601 -250.612868 
L 771.489338 -253.300926 
L 771.490529 -255.988984 
L 771.489871 -258.677042 
L 771.484933 -261.3651 
L 771.462248 -264.053158 
L 771.375615 -266.741216 
L 771.099275 -269.429274 
L 770.366009 -272.117332 
L 768.757918 -274.80539 
L 765.874161 -277.493448 
L 761.72612 -280.181506 
L 757.130236 -282.869564 
L 753.625144 -285.557622 
L 752.688924 -288.24568 
L 754.752233 -290.933738 
L 758.885015 -293.621796 
L 763.460071 -296.309854 
L 767.162968 -298.997913 
L 769.517892 -301.685971 
L 770.730066 -304.374029 
L 771.242756 -307.062087 
L 771.422487 -309.750145 
L 771.474969 -312.438203 
L 771.487534 -315.126261 
L 771.48833 -317.814319 
L 771.478283 -320.502377 
L 771.427871 -323.190435 
L 771.224407 -325.878493 
L 770.538508 -328.566551 
L 768.612201 -331.254609 
L 764.130676 -333.942667 
L 755.571913 -336.630725 
L 742.365387 -339.318783 
L 726.412686 -342.006841 
L 712.471445 -344.694899 
L 706.1238 -347.382957 
L 710.247569 -350.071015 
L 722.951554 -352.759073 
L 738.947384 -355.447131 
L 753.033518 -358.135189 
L 762.635465 -360.823247 
L 780.346535 -360.823247 
L 780.346535 -360.823247 
L 789.948482 -358.135189 
L 804.034616 -355.447131 
L 820.030446 -352.759073 
L 832.734431 -350.071015 
L 836.8582 -347.382957 
L 830.510555 -344.694899 
L 816.569314 -342.006841 
L 800.616613 -339.318783 
L 787.410087 -336.630725 
L 778.851324 -333.942667 
L 774.369799 -331.254609 
L 772.443492 -328.566551 
L 771.757593 -325.878493 
L 771.554129 -323.190435 
L 771.503717 -320.502377 
L 771.49367 -317.814319 
L 771.494466 -315.126261 
L 771.507031 -312.438203 
L 771.559513 -309.750145 
L 771.739244 -307.062087 
L 772.251934 -304.374029 
L 773.464108 -301.685971 
L 775.819032 -298.997913 
L 779.521929 -296.309854 
L 784.096985 -293.621796 
L 788.229767 -290.933738 
L 790.293076 -288.24568 
L 789.356856 -285.557622 
L 785.851764 -282.869564 
L 781.25588 -280.181506 
L 777.107839 -277.493448 
L 774.224082 -274.80539 
L 772.615991 -272.117332 
L 771.882725 -269.429274 
L 771.606385 -266.741216 
L 771.519752 -264.053158 
L 771.497067 -261.3651 
L 771.492129 -258.677042 
L 771.491471 -255.988984 
L 771.492662 -253.300926 
L 771.498399 -250.612868 
L 771.519206 -247.92481 
L 771.58199 -245.236752 
L 771.739302 -242.548694 
L 772.064195 -239.860636 
L 772.610334 -237.172578 
L 773.340066 -234.48452 
L 774.074932 -231.796462 
L 774.545537 -229.108404 
L 774.545537 -226.420346 
L 774.074932 -223.732288 
L 773.340066 -221.04423 
L 772.610334 -218.356172 
L 772.064195 -215.668114 
L 771.739302 -212.980056 
L 771.58199 -210.291998 
L 771.519206 -207.60394 
L 771.498397 -204.915882 
L 771.492642 -202.227824 
L 771.491314 -199.539766 
L 771.491087 -196.851708 
L 771.491222 -194.16365 
L 771.492021 -191.475592 
L 771.495095 -188.787534 
L 771.504901 -186.099476 
L 771.530922 -183.411418 
L 771.587987 -180.72336 
L 771.69032 -178.035302 
L 771.837518 -175.347244 
L 772.000608 -172.659186 
L 772.124991 -169.971128 
L 772.158213 -167.28307 
L 772.084995 -164.595012 
L 771.938338 -161.906954 
L 771.775987 -159.218896 
L 771.644585 -156.530837 
L 771.561018 -153.842779 
L 771.518003 -151.154721 
L 771.499809 -148.466663 
L 771.493431 -145.778605 
L 771.491568 -143.090547 
L 771.491114 -140.402489 
L 771.491035 -137.714431 
L 771.491101 -135.026373 
L 771.491491 -132.338315 
L 771.493073 -129.650257 
L 771.498405 -126.962199 
L 771.51338 -124.274141 
L 771.54822 -121.586083 
L 771.614757 -118.898025 
L 771.717427 -116.209967 
L 771.841445 -113.521909 
L 771.949826 -110.833851 
L 771.999174 -108.145793 
L 771.967115 -105.457735 
L 771.868352 -102.769677 
L 771.743999 -100.081619 
L 771.634491 -97.393561 
L 771.559844 -94.705503 
z
" style="stroke: #3d3d3d; stroke-width: 1.25"/>
    </defs>
    <g clip-path="url(#p1d7503997d)">
     <use xlink:href="#m90f866623d" x="0" y="432" style="fill: #efa6a5; stroke: #3d3d3d; stroke-width: 1.25"/>
    </g>
   </g>
   <g id="matplotlib.axis_1">
    <g id="xtick_1">
     <g id="line2d_1">
      <defs>
       <path id="m1a2e099124" d="M 0 0 
L 0 3.5 
" style="stroke: #000000; stroke-width: 0.8"/>
      </defs>
      <g>
       <use xlink:href="#m1a2e099124" x="117.819" y="381.6025" style="stroke: #000000; stroke-width: 0.8"/>
      </g>
     </g>
     <g id="text_1">
      <!-- Electronics -->
      <g transform="translate(62.819 395.4775) scale(0.1 -0.1)">
       <defs>
        <path id="SimHei-45" d="M 2900 125 
L 350 125 
L 350 4400 
L 2775 4400 
L 2775 3925 
L 925 3925 
L 925 2600 
L 2625 2600 
L 2625 2125 
L 925 2125 
L 925 600 
L 2900 600 
L 2900 125 
z
" transform="scale(0.015625)"/>
        <path id="SimHei-6c" d="M 1825 125 
L 1325 125 
L 1325 4400 
L 1825 4400 
L 1825 125 
z
" transform="scale(0.015625)"/>
        <path id="SimHei-65" d="M 2850 1075 
Q 2800 625 2450 350 
Q 2100 75 1625 75 
Q 1025 75 637 462 
Q 250 850 250 1525 
Q 250 2200 637 2587 
Q 1025 2975 1625 2975 
Q 2150 2975 2487 2637 
Q 2825 2300 2825 1525 
L 800 1525 
Q 800 975 1037 750 
Q 1275 525 1625 525 
Q 1900 525 2075 662 
Q 2250 800 2300 1075 
L 2850 1075 
z
M 2250 1925 
Q 2200 2275 2025 2412 
Q 1850 2550 1575 2550 
Q 1325 2550 1125 2412 
Q 925 2275 825 1925 
L 2250 1925 
z
" transform="scale(0.015625)"/>
        <path id="SimHei-63" d="M 2850 1250 
Q 2850 725 2487 400 
Q 2125 75 1575 75 
Q 1025 75 625 462 
Q 225 850 225 1525 
Q 225 2200 625 2587 
Q 1025 2975 1575 2975 
Q 2125 2975 2450 2687 
Q 2775 2400 2775 2000 
L 2225 2000 
Q 2200 2300 2012 2412 
Q 1825 2525 1575 2525 
Q 1275 2525 1025 2287 
Q 775 2050 775 1525 
Q 775 1000 1025 762 
Q 1275 525 1575 525 
Q 1900 525 2100 700 
Q 2300 875 2300 1250 
L 2850 1250 
z
" transform="scale(0.015625)"/>
        <path id="SimHei-74" d="M 2750 200 
Q 2625 150 2462 112 
Q 2300 75 2025 75 
Q 1575 75 1300 325 
Q 1025 575 1025 1025 
L 1025 2525 
L 175 2525 
L 175 2925 
L 1025 2925 
L 1025 3900 
L 1525 3900 
L 1525 2925 
L 2550 2925 
L 2550 2525 
L 1525 2525 
L 1525 1000 
Q 1525 800 1625 662 
Q 1725 525 2000 525 
Q 2275 525 2450 575 
Q 2625 625 2750 700 
L 2750 200 
z
" transform="scale(0.015625)"/>
        <path id="SimHei-72" d="M 2500 2425 
Q 2025 2500 1700 2287 
Q 1375 2075 1150 1550 
L 1150 125 
L 650 125 
L 650 2925 
L 1150 2925 
L 1150 2200 
Q 1375 2600 1712 2787 
Q 2050 2975 2500 2975 
L 2500 2425 
z
" transform="scale(0.015625)"/>
        <path id="SimHei-6f" d="M 2925 1525 
Q 2925 875 2525 475 
Q 2125 75 1575 75 
Q 1025 75 625 475 
Q 225 875 225 1525 
Q 225 2175 625 2575 
Q 1025 2975 1575 2975 
Q 2125 2975 2525 2575 
Q 2925 2175 2925 1525 
z
M 2375 1525 
Q 2375 2025 2125 2275 
Q 1875 2525 1575 2525 
Q 1275 2525 1025 2275 
Q 775 2025 775 1525 
Q 775 1025 1025 775 
Q 1275 525 1575 525 
Q 1875 525 2125 775 
Q 2375 1025 2375 1525 
z
" transform="scale(0.015625)"/>
        <path id="SimHei-6e" d="M 2800 125 
L 2300 125 
L 2300 1925 
Q 2300 2225 2150 2400 
Q 2000 2575 1750 2575 
Q 1425 2575 1137 2237 
Q 850 1900 850 1400 
L 850 125 
L 350 125 
L 350 2925 
L 850 2925 
L 850 2400 
Q 1050 2675 1287 2825 
Q 1525 2975 1900 2975 
Q 2350 2975 2575 2725 
Q 2800 2475 2800 2100 
L 2800 125 
z
" transform="scale(0.015625)"/>
        <path id="SimHei-69" d="M 1800 3725 
L 1300 3725 
L 1300 4375 
L 1800 4375 
L 1800 3725 
z
M 1800 125 
L 1300 125 
L 1300 2925 
L 1800 2925 
L 1800 125 
z
" transform="scale(0.015625)"/>
        <path id="SimHei-73" d="M 2750 900 
Q 2750 500 2437 287 
Q 2125 75 1650 75 
Q 1050 75 725 312 
Q 400 550 400 1000 
L 900 1000 
Q 900 700 1112 600 
Q 1325 500 1625 500 
Q 1925 500 2075 612 
Q 2225 725 2225 900 
Q 2225 1025 2100 1150 
Q 1975 1275 1475 1350 
Q 900 1425 687 1637 
Q 475 1850 475 2200 
Q 475 2500 762 2737 
Q 1050 2975 1600 2975 
Q 2100 2975 2387 2750 
Q 2675 2525 2675 2150 
L 2175 2150 
Q 2175 2375 2012 2462 
Q 1850 2550 1600 2550 
Q 1275 2550 1137 2437 
Q 1000 2325 1000 2175 
Q 1000 2000 1125 1900 
Q 1250 1800 1650 1750 
Q 2300 1650 2525 1437 
Q 2750 1225 2750 900 
z
" transform="scale(0.015625)"/>
       </defs>
       <use xlink:href="#SimHei-45"/>
       <use xlink:href="#SimHei-6c" x="50"/>
       <use xlink:href="#SimHei-65" x="100"/>
       <use xlink:href="#SimHei-63" x="150"/>
       <use xlink:href="#SimHei-74" x="200"/>
       <use xlink:href="#SimHei-72" x="250"/>
       <use xlink:href="#SimHei-6f" x="300"/>
       <use xlink:href="#SimHei-6e" x="350"/>
       <use xlink:href="#SimHei-69" x="400"/>
       <use xlink:href="#SimHei-63" x="450"/>
       <use xlink:href="#SimHei-73" x="500"/>
      </g>
     </g>
    </g>
    <g id="xtick_2">
     <g id="line2d_2">
      <g>
       <use xlink:href="#m1a2e099124" x="281.237" y="381.6025" style="stroke: #000000; stroke-width: 0.8"/>
      </g>
     </g>
     <g id="text_2">
      <!-- Tablets &amp; -->
      <g transform="translate(236.237 395.4775) scale(0.1 -0.1)">
       <defs>
        <path id="SimHei-54" d="M 2850 3925 
L 1850 3925 
L 1850 125 
L 1275 125 
L 1275 3925 
L 275 3925 
L 275 4400 
L 2850 4400 
L 2850 3925 
z
" transform="scale(0.015625)"/>
        <path id="SimHei-61" d="M 2875 125 
L 2275 125 
Q 2225 175 2200 262 
Q 2175 350 2175 475 
Q 2000 275 1750 175 
Q 1500 75 1225 75 
Q 825 75 550 275 
Q 275 475 275 850 
Q 275 1225 525 1450 
Q 775 1675 1300 1750 
Q 1650 1800 1912 1875 
Q 2175 1950 2175 2075 
Q 2175 2225 2062 2375 
Q 1950 2525 1575 2525 
Q 1275 2525 1137 2412 
Q 1000 2300 950 2100 
L 400 2100 
Q 450 2500 762 2737 
Q 1075 2975 1575 2975 
Q 2125 2975 2400 2725 
Q 2675 2475 2675 2025 
L 2675 650 
Q 2675 500 2725 375 
Q 2775 250 2875 125 
z
M 2175 1050 
L 2175 1550 
Q 2025 1500 1887 1462 
Q 1750 1425 1425 1375 
Q 1050 1325 937 1200 
Q 825 1075 825 900 
Q 825 750 937 637 
Q 1050 525 1275 525 
Q 1500 525 1762 650 
Q 2025 775 2175 1050 
z
" transform="scale(0.015625)"/>
        <path id="SimHei-62" d="M 2825 1525 
Q 2825 800 2475 437 
Q 2125 75 1625 75 
Q 1350 75 1150 175 
Q 950 275 800 500 
L 800 125 
L 300 125 
L 300 4400 
L 800 4400 
L 800 2550 
Q 950 2775 1150 2887 
Q 1350 3000 1625 3000 
Q 2125 3000 2475 2625 
Q 2825 2250 2825 1525 
z
M 2275 1525 
Q 2275 2000 2087 2275 
Q 1900 2550 1525 2550 
Q 1225 2550 1012 2275 
Q 800 2000 800 1525 
Q 800 1050 1012 787 
Q 1225 525 1525 525 
Q 1900 525 2087 787 
Q 2275 1050 2275 1525 
z
" transform="scale(0.015625)"/>
        <path id="SimHei-20" transform="scale(0.015625)"/>
        <path id="SimHei-26" d="M 3050 625 
L 2825 125 
Q 2675 225 2562 300 
Q 2450 375 2325 500 
Q 2125 300 1900 187 
Q 1675 75 1375 75 
Q 875 75 512 375 
Q 150 675 150 1300 
Q 150 1700 362 1962 
Q 575 2225 875 2450 
Q 750 2725 675 3000 
Q 600 3275 600 3500 
Q 600 3950 862 4200 
Q 1125 4450 1500 4450 
Q 1825 4450 2050 4237 
Q 2275 4025 2275 3625 
Q 2275 3150 2012 2862 
Q 1750 2575 1425 2375 
Q 1600 2075 1787 1812 
Q 1975 1550 2225 1275 
Q 2300 1450 2325 1612 
Q 2350 1775 2350 2025 
L 2850 2025 
Q 2850 1700 2787 1437 
Q 2725 1175 2600 950 
Q 2675 875 2812 775 
Q 2950 675 3050 625 
z
M 1800 3625 
Q 1800 3800 1712 3900 
Q 1625 4000 1475 4000 
Q 1325 4000 1200 3875 
Q 1075 3750 1075 3525 
Q 1075 3350 1112 3162 
Q 1150 2975 1250 2750 
Q 1450 2850 1625 3062 
Q 1800 3275 1800 3625 
z
M 1975 825 
Q 1650 1175 1425 1475 
Q 1200 1775 1050 2075 
Q 850 1925 762 1737 
Q 675 1550 675 1275 
Q 675 900 900 712 
Q 1125 525 1425 525 
Q 1600 525 1725 600 
Q 1850 675 1975 825 
z
" transform="scale(0.015625)"/>
       </defs>
       <use xlink:href="#SimHei-54"/>
       <use xlink:href="#SimHei-61" x="50"/>
       <use xlink:href="#SimHei-62" x="100"/>
       <use xlink:href="#SimHei-6c" x="150"/>
       <use xlink:href="#SimHei-65" x="200"/>
       <use xlink:href="#SimHei-74" x="250"/>
       <use xlink:href="#SimHei-73" x="300"/>
       <use xlink:href="#SimHei-20" x="350"/>
       <use xlink:href="#SimHei-26" x="400"/>
      </g>
      <!-- E-Readers -->
      <g transform="translate(236.237 404.9775) scale(0.1 -0.1)">
       <defs>
        <path id="SimHei-2d" d="M 2975 2125 
L 125 2125 
L 125 2525 
L 2975 2525 
L 2975 2125 
z
" transform="scale(0.015625)"/>
        <path id="SimHei-52" d="M 3000 125 
L 2400 125 
L 1500 1975 
L 850 1975 
L 850 125 
L 275 125 
L 275 4400 
L 1525 4400 
Q 2125 4400 2500 4112 
Q 2875 3825 2875 3175 
Q 2875 2675 2625 2400 
Q 2375 2125 2050 2050 
L 3000 125 
z
M 2300 3175 
Q 2300 3525 2087 3725 
Q 1875 3925 1400 3925 
L 850 3925 
L 850 2450 
L 1550 2450 
Q 1850 2450 2075 2612 
Q 2300 2775 2300 3175 
z
" transform="scale(0.015625)"/>
        <path id="SimHei-64" d="M 2750 125 
L 2250 125 
L 2250 500 
Q 2100 275 1900 175 
Q 1700 75 1425 75 
Q 925 75 575 437 
Q 225 800 225 1525 
Q 225 2250 575 2625 
Q 925 3000 1425 3000 
Q 1700 3000 1900 2887 
Q 2100 2775 2250 2550 
L 2250 4400 
L 2750 4400 
L 2750 125 
z
M 2250 1525 
Q 2250 2000 2037 2275 
Q 1825 2550 1525 2550 
Q 1150 2550 962 2275 
Q 775 2000 775 1525 
Q 775 1050 962 787 
Q 1150 525 1525 525 
Q 1825 525 2037 787 
Q 2250 1050 2250 1525 
z
" transform="scale(0.015625)"/>
       </defs>
       <use xlink:href="#SimHei-45"/>
       <use xlink:href="#SimHei-2d" x="50"/>
       <use xlink:href="#SimHei-52" x="100"/>
       <use xlink:href="#SimHei-65" x="150"/>
       <use xlink:href="#SimHei-61" x="200"/>
       <use xlink:href="#SimHei-64" x="250"/>
       <use xlink:href="#SimHei-65" x="300"/>
       <use xlink:href="#SimHei-72" x="350"/>
       <use xlink:href="#SimHei-73" x="400"/>
      </g>
     </g>
    </g>
    <g id="xtick_3">
     <g id="line2d_3">
      <g>
       <use xlink:href="#m1a2e099124" x="444.655" y="381.6025" style="stroke: #000000; stroke-width: 0.8"/>
      </g>
     </g>
     <g id="text_3">
      <!-- Accessories -->
      <g transform="translate(389.655 395.4775) scale(0.1 -0.1)">
       <defs>
        <path id="SimHei-41" d="M 3075 125 
L 2475 125 
L 2125 1450 
L 1025 1450 
L 675 125 
L 75 125 
L 1325 4450 
L 1825 4450 
L 3075 125 
z
M 2000 1925 
L 1600 3450 
L 1550 3450 
L 1150 1925 
L 2000 1925 
z
" transform="scale(0.015625)"/>
       </defs>
       <use xlink:href="#SimHei-41"/>
       <use xlink:href="#SimHei-63" x="50"/>
       <use xlink:href="#SimHei-63" x="100"/>
       <use xlink:href="#SimHei-65" x="150"/>
       <use xlink:href="#SimHei-73" x="200"/>
       <use xlink:href="#SimHei-73" x="250"/>
       <use xlink:href="#SimHei-6f" x="300"/>
       <use xlink:href="#SimHei-72" x="350"/>
       <use xlink:href="#SimHei-69" x="400"/>
       <use xlink:href="#SimHei-65" x="450"/>
       <use xlink:href="#SimHei-73" x="500"/>
      </g>
     </g>
    </g>
    <g id="xtick_4">
     <g id="line2d_4">
      <g>
       <use xlink:href="#m1a2e099124" x="608.073" y="381.6025" style="stroke: #000000; stroke-width: 0.8"/>
      </g>
     </g>
     <g id="text_4">
      <!-- Others -->
      <g transform="translate(578.073 395.4775) scale(0.1 -0.1)">
       <defs>
        <path id="SimHei-4f" d="M 2950 2275 
Q 2950 1100 2587 587 
Q 2225 75 1575 75 
Q 925 75 550 587 
Q 175 1100 175 2275 
Q 175 3450 550 3950 
Q 925 4450 1575 4450 
Q 2225 4450 2587 3950 
Q 2950 3450 2950 2275 
z
M 2350 2275 
Q 2350 3325 2125 3650 
Q 1900 3975 1575 3975 
Q 1250 3975 1012 3650 
Q 775 3325 775 2275 
Q 775 1225 1012 887 
Q 1250 550 1575 550 
Q 1900 550 2125 887 
Q 2350 1225 2350 2275 
z
" transform="scale(0.015625)"/>
        <path id="SimHei-68" d="M 2800 125 
L 2300 125 
L 2300 1925 
Q 2300 2225 2150 2400 
Q 2000 2575 1750 2575 
Q 1425 2575 1137 2237 
Q 850 1900 850 1400 
L 850 125 
L 350 125 
L 350 4400 
L 850 4400 
L 850 2400 
Q 1050 2675 1287 2825 
Q 1525 2975 1900 2975 
Q 2350 2975 2575 2725 
Q 2800 2475 2800 2100 
L 2800 125 
z
" transform="scale(0.015625)"/>
       </defs>
       <use xlink:href="#SimHei-4f"/>
       <use xlink:href="#SimHei-74" x="50"/>
       <use xlink:href="#SimHei-68" x="100"/>
       <use xlink:href="#SimHei-65" x="150"/>
       <use xlink:href="#SimHei-72" x="200"/>
       <use xlink:href="#SimHei-73" x="250"/>
      </g>
     </g>
    </g>
    <g id="xtick_5">
     <g id="line2d_5">
      <g>
       <use xlink:href="#m1a2e099124" x="771.491" y="381.6025" style="stroke: #000000; stroke-width: 0.8"/>
      </g>
     </g>
     <g id="text_5">
      <!-- Smart Home -->
      <g transform="translate(721.491 395.4775) scale(0.1 -0.1)">
       <defs>
        <path id="SimHei-53" d="M 2900 1325 
Q 2900 750 2537 412 
Q 2175 75 1550 75 
Q 925 75 575 425 
Q 225 775 225 1300 
L 225 1475 
L 800 1475 
L 800 1325 
Q 800 950 1025 750 
Q 1250 550 1550 550 
Q 1950 550 2137 762 
Q 2325 975 2325 1275 
Q 2325 1525 2100 1737 
Q 1875 1950 1450 2125 
Q 850 2350 587 2625 
Q 325 2900 325 3275 
Q 325 3800 687 4125 
Q 1050 4450 1550 4450 
Q 2200 4450 2487 4062 
Q 2775 3675 2775 3225 
L 2200 3225 
Q 2225 3500 2050 3725 
Q 1875 3950 1550 3950 
Q 1250 3950 1075 3787 
Q 900 3625 900 3350 
Q 900 3125 1037 2962 
Q 1175 2800 1750 2575 
Q 2300 2350 2600 2037 
Q 2900 1725 2900 1325 
z
" transform="scale(0.015625)"/>
        <path id="SimHei-6d" d="M 3050 125 
L 2550 125 
L 2550 2150 
Q 2550 2300 2500 2400 
Q 2450 2500 2300 2500 
Q 2125 2500 1975 2312 
Q 1825 2125 1825 1825 
L 1825 125 
L 1325 125 
L 1325 2150 
Q 1325 2300 1275 2400 
Q 1225 2500 1075 2500 
Q 900 2500 750 2312 
Q 600 2125 600 1825 
L 600 125 
L 100 125 
L 100 2925 
L 600 2925 
L 600 2550 
Q 725 2750 900 2862 
Q 1075 2975 1275 2975 
Q 1475 2975 1612 2862 
Q 1750 2750 1800 2550 
Q 1925 2750 2087 2862 
Q 2250 2975 2450 2975 
Q 2750 2975 2900 2812 
Q 3050 2650 3050 2350 
L 3050 125 
z
" transform="scale(0.015625)"/>
        <path id="SimHei-48" d="M 2850 125 
L 2275 125 
L 2275 2125 
L 850 2125 
L 850 125 
L 275 125 
L 275 4400 
L 850 4400 
L 850 2600 
L 2275 2600 
L 2275 4400 
L 2850 4400 
L 2850 125 
z
" transform="scale(0.015625)"/>
       </defs>
       <use xlink:href="#SimHei-53"/>
       <use xlink:href="#SimHei-6d" x="50"/>
       <use xlink:href="#SimHei-61" x="100"/>
       <use xlink:href="#SimHei-72" x="150"/>
       <use xlink:href="#SimHei-74" x="200"/>
       <use xlink:href="#SimHei-20" x="250"/>
       <use xlink:href="#SimHei-48" x="300"/>
       <use xlink:href="#SimHei-6f" x="350"/>
       <use xlink:href="#SimHei-6d" x="400"/>
       <use xlink:href="#SimHei-65" x="450"/>
      </g>
     </g>
    </g>
    <g id="text_6">
     <!-- 产品类别 -->
     <g transform="translate(424.655 418.313437) scale(0.1 -0.1)">
      <defs>
       <path id="SimHei-4ea7" d="M 5050 3700 
Q 4925 3550 4762 3262 
Q 4600 2975 4475 2725 
L 5250 2725 
Q 5775 2725 5950 2750 
L 5950 2250 
Q 5750 2275 5300 2275 
L 1525 2275 
Q 1525 300 575 -625 
Q 475 -425 200 -250 
Q 850 475 950 1262 
Q 1050 2050 1000 2725 
L 3950 2725 
Q 4275 3400 4425 3975 
Q 4750 3825 5050 3700 
z
M 3500 5275 
Q 3550 5100 3700 4475 
L 4950 4475 
Q 5400 4475 5800 4500 
L 5800 4025 
Q 5400 4050 5025 4050 
L 2000 4050 
Q 1625 4050 1050 4025 
L 1050 4500 
Q 1650 4475 1825 4475 
L 3125 4475 
Q 3050 4800 2925 5150 
Q 3225 5225 3500 5275 
z
M 2375 3950 
Q 2675 3550 2950 3025 
Q 2700 2925 2425 2775 
Q 2200 3300 1900 3675 
Q 2150 3825 2375 3950 
z
" transform="scale(0.015625)"/>
       <path id="SimHei-54c1" d="M 4900 4875 
Q 4875 4425 4875 3850 
Q 4875 3300 4900 2875 
L 1475 2875 
Q 1525 3300 1525 3875 
Q 1525 4450 1475 4875 
L 4900 4875 
z
M 5850 2300 
Q 5825 1850 5825 925 
Q 5825 25 5850 -350 
L 5375 -350 
L 5375 0 
L 3950 0 
L 3950 -425 
L 3475 -425 
Q 3500 0 3500 925 
Q 3500 1850 3475 2300 
L 5850 2300 
z
M 2400 -400 
L 2400 0 
L 1050 0 
L 1050 -425 
L 575 -425 
Q 600 0 600 925 
Q 600 1875 575 2300 
L 2875 2300 
Q 2825 1875 2825 1100 
Q 2825 350 2875 -400 
L 2400 -400 
z
M 4425 3300 
L 4425 4450 
L 1975 4450 
L 1975 3300 
L 4425 3300 
z
M 5375 450 
L 5375 1850 
L 3950 1850 
L 3950 450 
L 5375 450 
z
M 2400 450 
L 2400 1850 
L 1050 1850 
L 1050 450 
L 2400 450 
z
" transform="scale(0.015625)"/>
       <path id="SimHei-7c7b" d="M 2125 3875 
Q 1750 4375 1325 4725 
Q 1525 4875 1675 5050 
L 2525 4225 
Q 2400 4125 2200 3875 
L 3025 3875 
L 3025 4550 
Q 3025 4900 3000 5125 
L 3525 5125 
Q 3500 4850 3500 4550 
L 3500 3875 
L 4325 3875 
Q 4125 4050 4000 4150 
Q 4450 4575 4800 5175 
Q 5000 5000 5275 4825 
Q 5100 4675 4912 4475 
Q 4725 4275 4400 3875 
L 5025 3875 
Q 5425 3875 5900 3900 
L 5900 3450 
Q 5425 3475 5025 3475 
L 3500 3475 
L 3500 3050 
Q 3500 2650 3525 2175 
L 3175 2175 
Q 3475 2075 3675 2000 
Q 3575 1875 3525 1575 
L 5025 1575 
Q 5525 1575 6025 1600 
L 6025 1150 
Q 5550 1175 5050 1175 
L 3675 1175 
Q 4050 600 4712 275 
Q 5375 -50 6050 -175 
Q 5850 -350 5725 -675 
Q 4975 -450 4350 -37 
Q 3725 375 3300 950 
Q 3050 350 2425 -50 
Q 1800 -450 775 -700 
Q 650 -425 475 -225 
Q 1375 -100 2012 225 
Q 2650 550 2900 1175 
L 1625 1175 
Q 1025 1175 525 1150 
L 525 1600 
Q 950 1575 1600 1575 
L 3025 1575 
Q 3075 1825 3100 2175 
L 3000 2175 
Q 3025 2675 3025 3050 
L 3025 3325 
Q 2725 2900 2237 2550 
Q 1750 2200 925 1825 
Q 850 2025 625 2275 
Q 1175 2400 1725 2737 
Q 2275 3075 2600 3475 
L 1550 3475 
Q 1050 3475 600 3425 
L 600 3900 
Q 1075 3875 1550 3875 
L 2125 3875 
z
M 4100 3450 
Q 4850 3000 5800 2350 
Q 5575 2125 5425 1925 
Q 4700 2550 3825 3075 
Q 3975 3250 4100 3450 
z
" transform="scale(0.015625)"/>
       <path id="SimHei-522b" d="M 3275 4950 
Q 3250 4600 3250 3925 
Q 3250 3250 3275 2975 
L 800 2975 
Q 825 3275 825 3975 
Q 825 4700 800 4950 
L 3275 4950 
z
M 1650 2125 
Q 1650 2400 1625 2925 
Q 1950 2875 2225 2850 
Q 2150 2625 2125 2125 
L 3600 2125 
Q 3575 1850 3575 1375 
L 3525 125 
Q 3500 -275 3200 -400 
Q 2900 -525 2475 -600 
Q 2375 -275 2250 -25 
Q 2725 -25 2900 25 
Q 3075 75 3075 325 
L 3125 1675 
L 2100 1675 
Q 2025 875 1737 400 
Q 1450 -75 650 -675 
Q 475 -400 250 -225 
Q 900 125 1237 575 
Q 1575 1025 1600 1675 
L 1125 1675 
Q 825 1675 450 1650 
L 450 2150 
Q 800 2125 1125 2125 
L 1650 2125 
z
M 5800 5125 
Q 5775 4875 5775 4375 
L 5775 175 
Q 5775 -350 5525 -450 
Q 5275 -550 4700 -650 
Q 4625 -350 4475 -75 
Q 5000 -75 5150 -12 
Q 5300 50 5300 325 
L 5300 4375 
Q 5300 4825 5275 5125 
L 5800 5125 
z
M 4600 4400 
Q 4575 4100 4575 3700 
L 4575 1600 
Q 4575 1125 4600 725 
L 4075 725 
Q 4100 1125 4100 1600 
L 4100 3700 
Q 4100 4100 4075 4400 
L 4600 4400 
z
M 2775 3425 
L 2775 4500 
L 1300 4500 
L 1300 3425 
L 2775 3425 
z
" transform="scale(0.015625)"/>
      </defs>
      <use xlink:href="#SimHei-4ea7"/>
      <use xlink:href="#SimHei-54c1" x="100"/>
      <use xlink:href="#SimHei-7c7b" x="200"/>
      <use xlink:href="#SimHei-522b" x="300"/>
     </g>
    </g>
   </g>
   <g id="matplotlib.axis_2">
    <g id="ytick_1">
     <g id="line2d_6">
      <defs>
       <path id="m7bf6cc450e" d="M 0 0 
L -3.5 0 
" style="stroke: #000000; stroke-width: 0.8"/>
      </defs>
      <g>
       <use xlink:href="#m7bf6cc450e" x="36.11" y="324.151325" style="stroke: #000000; stroke-width: 0.8"/>
      </g>
     </g>
     <g id="text_7">
      <!-- 1 -->
      <g transform="translate(24.11 327.588825) scale(0.1 -0.1)">
       <defs>
        <path id="SimHei-31" d="M 1400 3600 
Q 1075 3275 575 2975 
L 575 3450 
Q 1200 3875 1600 4450 
L 1900 4450 
L 1900 150 
L 1400 150 
L 1400 3600 
z
" transform="scale(0.015625)"/>
       </defs>
       <use xlink:href="#SimHei-31"/>
      </g>
     </g>
    </g>
    <g id="ytick_2">
     <g id="line2d_7">
      <g>
       <use xlink:href="#m7bf6cc450e" x="36.11" y="264.193475" style="stroke: #000000; stroke-width: 0.8"/>
      </g>
     </g>
     <g id="text_8">
      <!-- 2 -->
      <g transform="translate(24.11 267.630975) scale(0.1 -0.1)">
       <defs>
        <path id="SimHei-32" d="M 300 250 
Q 325 625 650 925 
Q 975 1225 1475 1862 
Q 1975 2500 2125 2850 
Q 2275 3200 2237 3450 
Q 2200 3700 2000 3862 
Q 1800 4025 1537 4000 
Q 1275 3975 1037 3800 
Q 800 3625 675 3275 
L 200 3350 
Q 400 3925 712 4187 
Q 1025 4450 1450 4475 
Q 1700 4500 1900 4462 
Q 2100 4425 2312 4287 
Q 2525 4150 2662 3875 
Q 2800 3600 2762 3212 
Q 2725 2825 2375 2287 
Q 2025 1750 1025 600 
L 2825 600 
L 2825 150 
L 300 150 
L 300 250 
z
" transform="scale(0.015625)"/>
       </defs>
       <use xlink:href="#SimHei-32"/>
      </g>
     </g>
    </g>
    <g id="ytick_3">
     <g id="line2d_8">
      <g>
       <use xlink:href="#m7bf6cc450e" x="36.11" y="204.235625" style="stroke: #000000; stroke-width: 0.8"/>
      </g>
     </g>
     <g id="text_9">
      <!-- 3 -->
      <g transform="translate(24.11 207.673125) scale(0.1 -0.1)">
       <defs>
        <path id="SimHei-33" d="M 250 1225 
L 700 1300 
Q 800 975 1025 762 
Q 1250 550 1587 562 
Q 1925 575 2125 837 
Q 2325 1100 2300 1437 
Q 2275 1775 2037 1962 
Q 1800 2150 1275 2225 
L 1275 2550 
Q 1800 2600 2037 2825 
Q 2275 3050 2250 3412 
Q 2225 3775 1925 3937 
Q 1625 4100 1287 3975 
Q 950 3850 750 3275 
L 300 3350 
Q 450 3800 712 4100 
Q 975 4400 1425 4450 
Q 1875 4500 2212 4337 
Q 2550 4175 2687 3837 
Q 2825 3500 2725 3100 
Q 2625 2700 2150 2400 
Q 2500 2250 2687 1950 
Q 2875 1650 2812 1162 
Q 2750 675 2375 375 
Q 2000 75 1525 87 
Q 1050 100 700 387 
Q 350 675 250 1225 
z
" transform="scale(0.015625)"/>
       </defs>
       <use xlink:href="#SimHei-33"/>
      </g>
     </g>
    </g>
    <g id="ytick_4">
     <g id="line2d_9">
      <g>
       <use xlink:href="#m7bf6cc450e" x="36.11" y="144.277775" style="stroke: #000000; stroke-width: 0.8"/>
      </g>
     </g>
     <g id="text_10">
      <!-- 4 -->
      <g transform="translate(24.11 147.715275) scale(0.1 -0.1)">
       <defs>
        <path id="SimHei-34" d="M 2000 1100 
L 75 1100 
L 75 1525 
L 2100 4450 
L 2475 4450 
L 2475 1525 
L 3075 1525 
L 3075 1100 
L 2475 1100 
L 2475 150 
L 2000 150 
L 2000 1100 
z
M 2000 1525 
L 2000 3500 
L 600 1525 
L 2000 1525 
z
" transform="scale(0.015625)"/>
       </defs>
       <use xlink:href="#SimHei-34"/>
      </g>
     </g>
    </g>
    <g id="ytick_5">
     <g id="line2d_10">
      <g>
       <use xlink:href="#m7bf6cc450e" x="36.11" y="84.319925" style="stroke: #000000; stroke-width: 0.8"/>
      </g>
     </g>
     <g id="text_11">
      <!-- 5 -->
      <g transform="translate(24.11 87.757425) scale(0.1 -0.1)">
       <defs>
        <path id="SimHei-35" d="M 550 1325 
Q 725 650 1150 575 
Q 1575 500 1837 662 
Q 2100 825 2212 1087 
Q 2325 1350 2312 1675 
Q 2300 2000 2137 2225 
Q 1975 2450 1725 2525 
Q 1475 2600 1162 2525 
Q 850 2450 650 2175 
L 225 2225 
Q 275 2375 700 4375 
L 2675 4375 
L 2675 3925 
L 1075 3925 
Q 950 3250 825 2850 
Q 1200 3025 1525 3012 
Q 1850 3000 2150 2862 
Q 2450 2725 2587 2487 
Q 2725 2250 2787 2012 
Q 2850 1775 2837 1500 
Q 2825 1225 2725 937 
Q 2625 650 2425 462 
Q 2225 275 1937 162 
Q 1650 50 1275 75 
Q 900 100 562 350 
Q 225 600 100 1200 
L 550 1325 
z
" transform="scale(0.015625)"/>
       </defs>
       <use xlink:href="#SimHei-35"/>
      </g>
     </g>
    </g>
    <g id="text_12">
     <!-- 评分 -->
     <g transform="translate(18.86 214.235625) rotate(-90) scale(0.1 -0.1)">
      <defs>
       <path id="SimHei-8bc4" d="M 5900 4500 
Q 5400 4525 4425 4525 
L 4425 2125 
L 5200 2125 
Q 5750 2125 6175 2150 
L 6175 1675 
Q 5775 1700 5200 1700 
L 4425 1700 
L 4425 200 
Q 4425 -300 4450 -675 
L 3900 -675 
Q 3925 -200 3925 200 
L 3925 1700 
L 3075 1700 
Q 2625 1700 2225 1675 
L 2225 2150 
Q 2625 2125 3075 2125 
L 3925 2125 
L 3925 4525 
Q 2850 4525 2425 4500 
L 2425 4975 
Q 2850 4950 3300 4950 
L 4950 4950 
Q 5400 4950 5900 4975 
L 5900 4500 
z
M 875 225 
Q 1150 400 1150 650 
L 1150 2875 
Q 475 2875 225 2850 
L 225 3350 
Q 475 3325 825 3325 
L 1650 3325 
Q 1625 2825 1625 2325 
L 1625 725 
Q 1900 975 2275 1375 
Q 2375 1225 2550 950 
Q 2100 550 1812 300 
Q 1525 50 1250 -250 
Q 1100 25 875 225 
z
M 4825 2625 
Q 5200 3425 5375 4050 
Q 5650 3975 5975 3850 
Q 5925 3800 5700 3325 
Q 5475 2850 5300 2450 
Q 5050 2575 4825 2625 
z
M 2850 4000 
Q 3275 3175 3450 2700 
Q 3150 2600 2950 2475 
Q 2700 3300 2400 3800 
Q 2650 3875 2850 4000 
z
M 1100 5225 
Q 1400 4975 1975 4275 
Q 1750 4125 1575 3950 
Q 1300 4350 750 4900 
Q 900 5025 1100 5225 
z
" transform="scale(0.015625)"/>
       <path id="SimHei-5206" d="M 1000 -650 
Q 825 -375 575 -225 
Q 975 -75 1300 137 
Q 1625 350 1875 662 
Q 2125 975 2250 1350 
Q 2375 1725 2425 2275 
Q 1850 2275 1500 2250 
L 1500 2775 
Q 1900 2750 2525 2750 
L 5025 2750 
Q 4975 2375 4950 2100 
L 4750 250 
Q 4700 -200 4350 -350 
Q 4000 -500 3575 -525 
Q 3550 -275 3325 50 
Q 3850 25 4037 87 
Q 4225 150 4275 525 
L 4450 2275 
L 2950 2275 
Q 2875 1625 2737 1187 
Q 2600 750 2350 425 
Q 2100 100 1750 -175 
Q 1400 -450 1000 -650 
z
M 3950 5175 
Q 4125 4650 4662 3975 
Q 5200 3300 6175 2800 
Q 5975 2625 5775 2275 
Q 5325 2600 4987 2887 
Q 4650 3175 4425 3425 
Q 4200 3675 3925 4137 
Q 3650 4600 3475 5000 
Q 3750 5075 3950 5175 
z
M 2700 4825 
Q 2475 4425 2325 4125 
Q 2175 3825 2025 3587 
Q 1875 3350 1575 2950 
Q 1275 2550 850 2125 
Q 625 2350 400 2475 
Q 900 2925 1187 3300 
Q 1475 3675 1737 4112 
Q 2000 4550 2200 5075 
Q 2400 4925 2700 4825 
z
" transform="scale(0.015625)"/>
      </defs>
      <use xlink:href="#SimHei-8bc4"/>
      <use xlink:href="#SimHei-5206" x="100"/>
     </g>
    </g>
   </g>
   <g id="line2d_11">
    <path d="M 117.819 204.235625 
L 117.819 84.319925 
" clip-path="url(#p1d7503997d)" style="fill: none; stroke: #3d3d3d; stroke-width: 1.875; stroke-linecap: square"/>
   </g>
   <g id="line2d_12">
    <path d="M 117.819 144.277775 
L 117.819 84.319925 
" clip-path="url(#p1d7503997d)" style="fill: none; stroke: #3d3d3d; stroke-width: 5.625; stroke-linecap: square"/>
   </g>
   <g id="line2d_13">
    <path d="M 117.819 84.319925 
" clip-path="url(#p1d7503997d)" style="fill: none; stroke: #3d3d3d; stroke-width: 1.5; stroke-linecap: square"/>
    <defs>
     <path id="m8995e89a81" d="M 2.34375 0 
L -2.34375 -0 
" style="stroke: #ffffff; stroke-width: 1.125"/>
    </defs>
    <g clip-path="url(#p1d7503997d)">
     <use xlink:href="#m8995e89a81" x="117.819" y="84.319925" style="fill: #ffffff; stroke: #ffffff; stroke-width: 1.125"/>
    </g>
   </g>
   <g id="line2d_14">
    <path d="M 281.237 204.235625 
L 281.237 84.319925 
" clip-path="url(#p1d7503997d)" style="fill: none; stroke: #3d3d3d; stroke-width: 1.875; stroke-linecap: square"/>
   </g>
   <g id="line2d_15">
    <path d="M 281.237 144.277775 
L 281.237 84.319925 
" clip-path="url(#p1d7503997d)" style="fill: none; stroke: #3d3d3d; stroke-width: 5.625; stroke-linecap: square"/>
   </g>
   <g id="line2d_16">
    <path d="M 281.237 84.319925 
" clip-path="url(#p1d7503997d)" style="fill: none; stroke: #3d3d3d; stroke-width: 1.5; stroke-linecap: square"/>
    <g clip-path="url(#p1d7503997d)">
     <use xlink:href="#m8995e89a81" x="281.237" y="84.319925" style="fill: #ffffff; stroke: #ffffff; stroke-width: 1.125"/>
    </g>
   </g>
   <g id="line2d_17">
    <path d="M 444.655 204.235625 
L 444.655 84.319925 
" clip-path="url(#p1d7503997d)" style="fill: none; stroke: #3d3d3d; stroke-width: 1.875; stroke-linecap: square"/>
   </g>
   <g id="line2d_18">
    <path d="M 444.655 144.277775 
L 444.655 84.319925 
" clip-path="url(#p1d7503997d)" style="fill: none; stroke: #3d3d3d; stroke-width: 5.625; stroke-linecap: square"/>
   </g>
   <g id="line2d_19">
    <path d="M 444.655 84.319925 
" clip-path="url(#p1d7503997d)" style="fill: none; stroke: #3d3d3d; stroke-width: 1.5; stroke-linecap: square"/>
    <g clip-path="url(#p1d7503997d)">
     <use xlink:href="#m8995e89a81" x="444.655" y="84.319925" style="fill: #ffffff; stroke: #ffffff; stroke-width: 1.125"/>
    </g>
   </g>
   <g id="line2d_20">
    <path d="M 608.073 84.319925 
L 608.073 84.319925 
" clip-path="url(#p1d7503997d)" style="fill: none; stroke: #3d3d3d; stroke-width: 1.875; stroke-linecap: square"/>
   </g>
   <g id="line2d_21">
    <path d="M 608.073 84.319925 
L 608.073 84.319925 
" clip-path="url(#p1d7503997d)" style="fill: none; stroke: #3d3d3d; stroke-width: 5.625; stroke-linecap: square"/>
   </g>
   <g id="line2d_22">
    <path d="M 608.073 84.319925 
" clip-path="url(#p1d7503997d)" style="fill: none; stroke: #3d3d3d; stroke-width: 1.5; stroke-linecap: square"/>
    <g clip-path="url(#p1d7503997d)">
     <use xlink:href="#m8995e89a81" x="608.073" y="84.319925" style="fill: #ffffff; stroke: #ffffff; stroke-width: 1.125"/>
    </g>
   </g>
   <g id="line2d_23">
    <path d="M 771.491 204.235625 
L 771.491 84.319925 
" clip-path="url(#p1d7503997d)" style="fill: none; stroke: #3d3d3d; stroke-width: 1.875; stroke-linecap: square"/>
   </g>
   <g id="line2d_24">
    <path d="M 771.491 144.277775 
L 771.491 84.319925 
" clip-path="url(#p1d7503997d)" style="fill: none; stroke: #3d3d3d; stroke-width: 5.625; stroke-linecap: square"/>
   </g>
   <g id="line2d_25">
    <path d="M 771.491 84.319925 
" clip-path="url(#p1d7503997d)" style="fill: none; stroke: #3d3d3d; stroke-width: 1.5; stroke-linecap: square"/>
    <g clip-path="url(#p1d7503997d)">
     <use xlink:href="#m8995e89a81" x="771.491" y="84.319925" style="fill: #ffffff; stroke: #ffffff; stroke-width: 1.125"/>
    </g>
   </g>
   <g id="patch_3">
    <path d="M 36.11 381.6025 
L 36.11 26.86875 
" style="fill: none; stroke: #000000; stroke-width: 0.8; stroke-linejoin: miter; stroke-linecap: square"/>
   </g>
   <g id="patch_4">
    <path d="M 853.2 381.6025 
L 853.2 26.86875 
" style="fill: none; stroke: #000000; stroke-width: 0.8; stroke-linejoin: miter; stroke-linecap: square"/>
   </g>
   <g id="patch_5">
    <path d="M 36.11 381.6025 
L 853.2 381.6025 
" style="fill: none; stroke: #000000; stroke-width: 0.8; stroke-linejoin: miter; stroke-linecap: square"/>
   </g>
   <g id="patch_6">
    <path d="M 36.11 26.86875 
L 853.2 26.86875 
" style="fill: none; stroke: #000000; stroke-width: 0.8; stroke-linejoin: miter; stroke-linecap: square"/>
   </g>
   <g id="text_13">
    <!-- 不同类别评分分布（小提琴图） -->
    <g transform="translate(360.655 20.86875) scale(0.12 -0.12)">
     <defs>
      <path id="SimHei-4e0d" d="M 5975 4450 
Q 5525 4475 5200 4475 
L 3725 4475 
Q 3550 4125 3300 3700 
L 3300 575 
Q 3300 75 3325 -550 
L 2775 -550 
Q 2800 50 2800 575 
L 2800 3025 
Q 2025 1950 700 1050 
Q 500 1350 325 1475 
Q 825 1700 1650 2437 
Q 2475 3175 3175 4475 
L 1525 4475 
Q 1050 4475 525 4450 
L 525 4950 
Q 1275 4925 1675 4925 
L 5175 4925 
Q 5500 4925 5975 4950 
L 5975 4450 
z
M 5450 1125 
Q 4975 1725 3750 2975 
Q 3950 3150 4075 3325 
Q 4675 2775 5100 2362 
Q 5525 1950 5900 1550 
Q 5650 1350 5450 1125 
z
" transform="scale(0.015625)"/>
      <path id="SimHei-540c" d="M 5825 4925 
Q 5775 4550 5775 3975 
L 5775 -50 
Q 5775 -400 5525 -487 
Q 5275 -575 4725 -625 
Q 4725 -400 4525 -50 
Q 4925 -50 5100 -12 
Q 5275 25 5275 200 
L 5275 4450 
L 1150 4450 
L 1150 -600 
L 575 -600 
Q 600 -250 625 200 
L 625 3975 
Q 625 4575 600 4925 
L 5825 4925 
z
M 4375 2550 
Q 4325 2275 4325 1700 
Q 4325 1150 4375 725 
L 2025 725 
Q 2050 1175 2050 1750 
Q 2050 2325 2025 2550 
L 4375 2550 
z
M 4100 3750 
Q 4600 3750 4825 3775 
L 4825 3275 
Q 4575 3300 4075 3300 
L 2450 3300 
Q 1850 3300 1600 3275 
L 1600 3775 
Q 1875 3750 2475 3750 
L 4100 3750 
z
M 3875 1150 
L 3875 2150 
L 2525 2150 
L 2525 1150 
L 3875 1150 
z
" transform="scale(0.015625)"/>
      <path id="SimHei-5e03" d="M 2375 4225 
Q 2650 4775 2775 5300 
Q 3125 5175 3400 5075 
Q 3275 4975 2950 4225 
L 4800 4225 
Q 5550 4225 6025 4250 
L 6025 3800 
L 2725 3800 
Q 2325 3100 1975 2675 
L 3275 2675 
Q 3275 3225 3250 3575 
L 3775 3575 
Q 3750 3225 3750 2675 
L 5500 2675 
Q 5475 2225 5475 1775 
L 5475 750 
Q 5475 275 5212 150 
Q 4950 25 4450 -25 
Q 4400 325 4225 550 
Q 4800 550 4912 625 
Q 5025 700 5000 1025 
L 5000 2250 
L 3750 2250 
L 3750 550 
Q 3750 25 3775 -600 
L 3250 -600 
Q 3275 25 3275 550 
L 3275 2250 
L 2100 2250 
L 2100 0 
L 1600 0 
Q 1625 525 1625 1025 
L 1625 2225 
Q 1300 1850 650 1275 
Q 475 1475 200 1650 
Q 750 2025 1262 2562 
Q 1775 3100 2150 3800 
L 1550 3800 
Q 925 3800 400 3775 
L 400 4250 
Q 925 4225 1550 4225 
L 2375 4225 
z
" transform="scale(0.015625)"/>
      <path id="SimHei-ff08" d="M 5425 5100 
L 5700 4775 
Q 4275 3725 4325 2350 
Q 4350 1025 5675 50 
L 5400 -275 
Q 3875 825 3925 2500 
Q 3925 3875 5425 5100 
z
" transform="scale(0.015625)"/>
      <path id="SimHei-5c0f" d="M 3500 5150 
Q 3475 4800 3475 4200 
L 3475 175 
Q 3475 -300 3225 -425 
Q 2975 -550 2375 -600 
Q 2325 -300 2150 -25 
Q 2700 -25 2837 0 
Q 2975 25 2975 300 
L 2975 4200 
Q 2975 4650 2950 5150 
L 3500 5150 
z
M 2075 3400 
Q 1850 2775 1550 1962 
Q 1250 1150 1025 750 
Q 775 950 500 1000 
Q 925 1750 1175 2487 
Q 1425 3225 1500 3575 
Q 1800 3425 2075 3400 
z
M 4675 3600 
Q 5675 1800 5875 1150 
Q 5625 1100 5375 925 
Q 5000 2000 4225 3325 
Q 4425 3425 4675 3600 
z
" transform="scale(0.015625)"/>
      <path id="SimHei-63d0" d="M 5600 5025 
Q 5575 4625 5575 3900 
Q 5575 3200 5600 2825 
L 2750 2825 
Q 2775 3325 2775 3900 
Q 2775 4500 2750 5025 
L 5600 5025 
z
M 5250 2375 
Q 5675 2375 6075 2400 
L 6075 1950 
Q 5700 1975 5275 1975 
L 4400 1975 
L 4400 1275 
L 4775 1275 
Q 5225 1275 5625 1300 
L 5625 850 
Q 5225 875 4800 875 
L 4400 875 
L 4400 75 
Q 4675 25 5150 25 
Q 5625 25 6150 100 
Q 6050 -75 5950 -450 
Q 5200 -450 4650 -437 
Q 4100 -425 3700 -250 
Q 3300 -75 2950 250 
Q 2725 -225 2200 -650 
Q 2025 -450 1775 -325 
Q 2300 0 2537 562 
Q 2775 1125 2775 1675 
Q 3075 1550 3325 1525 
Q 3250 1375 3125 725 
Q 3450 300 3925 175 
L 3925 1975 
L 3375 1975 
Q 2850 1975 2350 1950 
L 2350 2400 
Q 2850 2375 3400 2375 
L 5250 2375 
z
M 1125 4475 
Q 1125 4900 1100 5200 
L 1625 5200 
Q 1600 4925 1600 4500 
L 1600 3825 
Q 1975 3825 2350 3850 
L 2350 3400 
Q 1975 3425 1600 3425 
L 1600 2300 
Q 1925 2475 2175 2625 
Q 2175 2425 2200 2175 
Q 1975 2050 1600 1850 
L 1600 0 
Q 1550 -350 1350 -437 
Q 1150 -525 650 -575 
Q 650 -275 500 0 
Q 875 -25 1000 0 
Q 1125 25 1125 225 
L 1125 1675 
Q 825 1550 425 1300 
Q 325 1625 200 1800 
Q 650 1900 1125 2125 
L 1125 3425 
Q 675 3425 350 3400 
L 350 3850 
Q 675 3825 1125 3825 
L 1125 4475 
z
M 5125 3225 
L 5125 3725 
L 3225 3725 
L 3225 3225 
L 5125 3225 
z
M 5125 4150 
L 5125 4600 
L 3225 4600 
L 3225 4150 
L 5125 4150 
z
" transform="scale(0.015625)"/>
      <path id="SimHei-7434" d="M 3400 4900 
Q 3825 4875 4150 4875 
L 4975 4875 
Q 5300 4875 5800 4900 
L 5800 4475 
Q 5425 4500 4800 4500 
L 4800 3975 
Q 5350 3975 5675 4000 
L 5675 3575 
Q 5400 3600 4800 3600 
L 4800 3075 
L 5325 3075 
Q 5725 3075 5975 3100 
L 5975 2675 
Q 5725 2700 5325 2700 
L 4325 2700 
Q 4025 2700 3450 2675 
L 3450 3100 
Q 3925 3075 4350 3075 
L 4350 3600 
Q 3850 3600 3500 3575 
L 3500 4000 
Q 3825 3975 4350 3975 
L 4350 4500 
Q 3800 4500 3400 4475 
L 3400 4900 
z
M 2000 3925 
Q 2525 3925 2825 3950 
L 2825 3525 
Q 2525 3550 2000 3550 
L 2000 3050 
L 2850 3125 
L 2900 2775 
Q 2125 2700 1487 2637 
Q 850 2575 525 2525 
L 450 2950 
L 1525 3025 
L 1525 3550 
Q 1100 3550 725 3525 
L 725 3950 
Q 1125 3925 1525 3925 
L 1525 4475 
Q 1025 4475 600 4450 
L 600 4875 
Q 1075 4850 1375 4850 
L 2250 4850 
Q 2600 4850 2975 4875 
L 2975 4450 
Q 2675 4475 2000 4475 
L 2000 3925 
z
M 3375 2475 
Q 3825 2150 4600 1787 
Q 5375 1425 6175 1325 
Q 5950 1100 5825 850 
Q 4950 1100 4262 1475 
Q 3575 1850 3100 2225 
Q 2775 1950 2150 1587 
Q 1525 1225 600 825 
Q 475 1100 225 1275 
Q 1100 1500 1912 1937 
Q 2725 2375 3075 2875 
Q 3250 2725 3550 2600 
L 3375 2475 
z
M 1225 875 
Q 1650 850 2000 850 
L 5050 850 
Q 4800 600 4362 187 
Q 3925 -225 3425 -700 
Q 3175 -500 2950 -450 
Q 3475 -50 4000 475 
L 2000 475 
Q 1650 475 1225 450 
L 1225 875 
z
M 3050 1025 
Q 2975 1350 2800 1675 
Q 3025 1725 3250 1825 
Q 3375 1600 3550 1200 
Q 3250 1125 3050 1025 
z
" transform="scale(0.015625)"/>
      <path id="SimHei-56fe" d="M 5800 4975 
Q 5775 4350 5775 3600 
L 5775 925 
Q 5775 150 5800 -600 
L 5300 -600 
L 5300 -275 
L 1125 -275 
L 1125 -650 
L 625 -650 
Q 650 125 650 950 
L 650 3600 
Q 650 4325 625 4975 
L 5800 4975 
z
M 5300 150 
L 5300 4575 
L 1125 4575 
L 1125 150 
L 5300 150 
z
M 3225 4250 
Q 3075 4100 2950 3925 
L 4625 3925 
Q 4525 3700 4300 3375 
Q 4075 3050 3600 2600 
Q 4350 2225 5075 2150 
Q 4900 1925 4775 1675 
Q 3850 1950 3225 2350 
Q 2500 1875 1675 1650 
Q 1600 1875 1400 2075 
Q 2200 2200 2875 2600 
Q 2525 2925 2375 3150 
Q 2150 2900 1900 2650 
Q 1725 2850 1525 2950 
Q 1950 3300 2250 3737 
Q 2550 4175 2675 4475 
Q 2925 4350 3225 4250 
z
M 2450 1275 
Q 3550 950 4100 725 
Q 3975 525 3850 300 
Q 2825 725 2275 850 
Q 2375 1050 2450 1275 
z
M 2925 2050 
Q 3775 1700 4075 1600 
Q 3950 1400 3850 1150 
Q 3000 1550 2700 1650 
Q 2825 1825 2925 2050 
z
M 2625 3450 
Q 3000 3025 3275 2850 
Q 3600 3100 3875 3525 
L 2675 3525 
L 2625 3450 
z
" transform="scale(0.015625)"/>
      <path id="SimHei-ff09" d="M 1000 5100 
Q 2500 3875 2500 2500 
Q 2550 825 1025 -275 
L 750 50 
Q 2075 1025 2100 2350 
Q 2150 3725 725 4775 
L 1000 5100 
z
" transform="scale(0.015625)"/>
     </defs>
     <use xlink:href="#SimHei-4e0d"/>
     <use xlink:href="#SimHei-540c" x="100"/>
     <use xlink:href="#SimHei-7c7b" x="200"/>
     <use xlink:href="#SimHei-522b" x="300"/>
     <use xlink:href="#SimHei-8bc4" x="400"/>
     <use xlink:href="#SimHei-5206" x="500"/>
     <use xlink:href="#SimHei-5206" x="600"/>
     <use xlink:href="#SimHei-5e03" x="700"/>
     <use xlink:href="#SimHei-ff08" x="800"/>
     <use xlink:href="#SimHei-5c0f" x="900"/>
     <use xlink:href="#SimHei-63d0" x="1000"/>
     <use xlink:href="#SimHei-7434" x="1100"/>
     <use xlink:href="#SimHei-56fe" x="1200"/>
     <use xlink:href="#SimHei-ff09" x="1300"/>
    </g>
   </g>
  </g>
 </g>
 <defs>
  <clipPath id="p1d7503997d">
   <rect x="36.11" y="26.86875" width="817.09" height="354.73375"/>
  </clipPath>
 </defs>
</svg>
